<svg xmlns="http://www.w3.org/2000/svg" viewBox="0.96 107 538.14 173.43">
 <style>.st0{fill:#17407a}.st1{fill:#fcbc2b}</style>

 <g>
  <title>background</title>
  <rect fill="none" id="canvas_background" height="383.4" width="543.1" y="-1" x="-1"/>
 </g>
 <g>
  <title>Layer 1</title>
  <g stroke="null" id="svg_31">
   <path stroke="null" id="svg_23" d="m342.7726,121.92397l1.80117,0l0,143.32157l-1.80117,0l0,-143.32157zm144.0935,23.41519l-64.07014,0c0.25731,0 28.8187,-22.90057 64.07014,0zm14.15204,14.40935l5.40351,9.00584l-131.99994,0l3.34503,-9.00584l123.2514,0zm10.03508,23.6725l0.51462,8.49122l-140.49116,0l0.51462,-8.49122l139.46192,0zm-0.51462,23.15788s-0.77193,3.34503 -3.08772,9.00584l-134.05842,0l-1.28655,-9.00584l138.43268,0z" class="st1"/>
   <path stroke="null" id="svg_24" d="m539.09999,194.74265l-0.77193,8.74853l-139.71923,0l-0.51462,-8.74853l141.00578,0zm-3.60234,23.41519l-3.08772,9.00584l-124.53795,0l-4.37427,-9.00584l131.99994,0zm-133.02918,-46.83039l-2.83041,9.00584l138.43268,0l-1.80117,-9.00584l-133.80111,0zm84.39762,70.24558l-63.55553,0s28.04677,23.92981 63.55553,0z" class="st0"/>
   <path stroke="null" id="svg_25" d="m416.87783,239.25725l73.3333,0l9.26315,-9.26315l-121.19292,0s21.09941,50.43272 74.87716,50.43272s76.93564,-44.25729 77.70757,-50.43272c0,0 -18.01169,33.9649 -56.35085,33.9649s-51.20465,-17.23976 -57.6374,-24.70174z" class="st1"/>
   <path stroke="null" id="svg_26" d="m419.45092,147.65495s-7.20467,6.43275 -9.00584,9.26315l120.16369,0s-19.81286,-49.9181 -74.61985,-49.9181s-74.61985,44.77191 -76.93564,49.9181c0,0 20.07017,-34.22221 58.15202,-34.22221s56.09354,25.21636 56.09354,25.21636l-73.84792,-0.25731z" class="st0"/>
   <g stroke="null" id="svg_30">
    <path stroke="null" id="svg_22" d="m293.36911,229.22216l0,-3.60234l7.20467,0c1.28655,0 2.5731,0 3.34503,-0.25731s1.54386,-0.51462 2.05848,-0.77193s0.77193,-0.51462 1.02924,-1.02924s0.25731,-0.77193 0.25731,-1.02924l-3.85965,0c-0.51462,0 -0.77193,0 -1.28655,-0.25731c-0.51462,0 -0.77193,-0.25731 -1.28655,-0.25731c-0.51462,-0.25731 -0.77193,-0.25731 -1.28655,-0.51462c-0.25731,-0.25731 -0.77193,-0.51462 -1.02924,-0.77193l-1.02924,-1.02924l-0.77193,-1.54386c-0.25731,-0.51462 -0.25731,-1.28655 -0.25731,-2.05848c0,-1.02924 0.25731,-2.05848 0.51462,-2.83041s0.77193,-1.80117 1.54386,-2.31579c0.77193,-0.77193 1.28655,-1.02924 2.31579,-1.54386c0.77193,-0.25731 1.80117,-0.51462 2.5731,-0.51462c1.02924,0 2.05848,0.25731 3.08772,0.77193s1.80117,1.02924 2.31579,2.05848c0.77193,0.77193 1.28655,2.05848 1.54386,3.34503s0.51462,2.83041 0.51462,4.63158l0,2.5731c0,1.28655 -0.25731,2.31579 -0.77193,3.34503c-0.51462,1.02924 -1.28655,1.80117 -2.31579,2.31579c-1.54386,1.02924 -4.11696,1.54386 -7.20467,1.54386l-7.20467,-0.25731zm6.43275,-28.04677l3.08772,-3.34503l3.34503,3.34503l-3.34503,3.34503l-3.08772,-3.34503zm3.60234,11.06432c-0.51462,0 -0.77193,0 -1.28655,0.25731s-0.77193,0.25731 -1.28655,0.77193c-0.25731,0.25731 -0.51462,0.77193 -0.77193,1.02924c-0.25731,0.51462 -0.25731,1.02924 -0.25731,1.54386c0,0.51462 0,0.77193 0.25731,1.02924c0,0.25731 0.25731,0.51462 0.25731,0.77193l0.51462,0.51462c0.25731,0 0.25731,0.25731 0.51462,0.25731c0.25731,0.25731 0.77193,0.25731 1.28655,0.51462c0.51462,0 1.02924,0.25731 1.80117,0.25731l2.83041,0c0,-1.28655 -0.25731,-2.31579 -0.25731,-3.34503c-0.25731,-1.02924 -0.51462,-1.80117 -1.02924,-2.31579c-0.51462,-0.77193 -1.54386,-1.28655 -2.5731,-1.28655z" class="st0"/>
    <path stroke="null" id="svg_1" d="m23.1938,175.44441l-0.51462,0c-2.05848,0 -3.85965,-0.51462 -5.1462,-1.28655c-1.54386,-0.77193 -2.5731,-2.05848 -3.34503,-3.60234c-0.51462,0.51462 -0.77193,1.02924 -1.54386,1.54386s-1.28655,0.77193 -1.80117,1.02924c-0.51462,0.25731 -0.77193,0.25731 -1.28655,0.51462c-0.51462,0 -1.02924,0.25731 -1.54386,0.25731s-1.28655,0 -1.80117,-0.25731s-1.28655,-0.25731 -1.80117,-0.77193c-0.77193,-0.51462 -1.54386,-1.02924 -2.05848,-1.80117c-0.51462,-0.77193 -0.77193,-1.80117 -1.02924,-2.83041c-0.25731,-1.28655 -0.25731,-2.5731 0.25731,-3.85965s1.02924,-2.31579 2.05848,-3.34503c1.80117,-1.80117 4.11696,-3.08772 7.20467,-4.11696l-0.25731,-2.05848l3.34503,-0.77193c0.25731,1.28655 0.51462,2.31579 0.77193,3.34503c0.25731,1.02924 0.51462,1.80117 0.51462,2.5731c0,0.25731 0,0.51462 0.25731,0.77193c0,0.25731 0.25731,0.77193 0.25731,1.28655s0.25731,1.02924 0.25731,1.54386s0.25731,1.02924 0.25731,1.54386s0.25731,1.02924 0.25731,1.28655c0,0.51462 0.25731,0.77193 0.25731,1.02924c0.25731,1.02924 0.51462,1.80117 1.02924,2.31579c0.51462,0.51462 1.02924,1.02924 1.54386,1.28655s1.28655,0.51462 1.80117,0.51462c0.51462,0 1.02924,0.25731 1.54386,0.25731l0.51462,0l0,3.60234zm-11.83625,-14.92397c-1.28655,0.25731 -2.31579,0.77193 -3.34503,1.28655s-1.80117,1.02924 -2.31579,1.54386c-0.51462,0.51462 -1.02924,1.28655 -1.28655,2.05848s-0.25731,1.54386 -0.25731,2.31579c0,0.51462 0.25731,1.02924 0.51462,1.28655s0.51462,0.51462 1.02924,0.77193c0.25731,0.25731 0.51462,0.25731 0.77193,0.25731l2.05848,0c0.25731,0 0.51462,0 0.77193,-0.25731c1.54386,-0.77193 2.5731,-1.80117 2.83041,-3.60234l0,-1.80117c0,-0.51462 0,-0.77193 -0.25731,-1.02924l-0.51462,-2.83041z" class="st0"/>
    <path stroke="null" id="svg_2" d="m30.65579,171.84207s0.25731,0.25731 0,0l0.25731,3.34503s0,0.25731 -0.25731,0.25731l-7.9766,0s-0.25731,0 -0.25731,-0.25731l0,-3.08772s0,-0.25731 0.25731,-0.25731l7.9766,0z" class="st0"/>
    <path stroke="null" id="svg_3" d="m47.38093,175.44441l-0.77193,0c-0.25731,0 -0.51462,-0.25731 -1.02924,-0.25731s-0.77193,-0.51462 -1.28655,-0.77193s-1.02924,-0.77193 -1.80117,-1.28655c-1.54386,0.77193 -3.08772,1.28655 -5.1462,1.80117c-2.05848,0.25731 -4.11696,0.51462 -6.43275,0.51462l-1.02924,0l0,-3.60234l1.02924,0c1.80117,0 3.34503,0 4.88889,-0.25731s2.5731,-0.51462 3.60234,-0.77193c-0.77193,-0.51462 -1.28655,-1.02924 -2.05848,-1.80117c-0.51462,-0.51462 -1.28655,-1.02924 -1.80117,-1.54386l-1.28655,-1.28655c-0.51462,-0.25731 -0.77193,-0.77193 -0.77193,-0.77193l0,-1.54386c0,-0.25731 0,-0.51462 0.25731,-0.77193s0.25731,-0.51462 0.25731,-1.02924c0.25731,-0.25731 0.25731,-0.51462 0.51462,-0.77193c1.02924,-1.02924 2.5731,-1.54386 4.63158,-1.54386l6.17544,0c1.02924,0 2.05848,0.25731 2.83041,0.77193c0.77193,0.51462 1.54386,1.28655 1.80117,2.05848c0.25731,0.51462 0.51462,1.02924 0.51462,1.80117c0,0.51462 0,1.02924 -0.25731,1.54386l-0.77193,1.54386c-0.25731,0.51462 -0.77193,1.02924 -1.28655,1.54386l-1.28655,1.28655l-1.28655,1.28655c0.25731,0.25731 0.51462,0.25731 0.77193,0.51462c0.25731,0 0.25731,0.25731 0.51462,0.25731l7.46198,0l0,3.60234l-6.94737,0l0,-0.51462zm-10.03508,-11.57894l1.02924,1.02924c0.51462,0.51462 1.02924,0.77193 1.54386,1.28655l1.54386,1.54386c0.51462,0.51462 1.02924,1.02924 1.54386,1.28655c0.77193,-0.51462 1.28655,-1.02924 2.05848,-1.80117c0.51462,-0.51462 1.28655,-1.28655 1.80117,-2.05848c0.25731,-0.25731 0.25731,-0.25731 0.25731,-0.51462l0,-0.77193c0,-0.25731 -0.25731,-0.25731 -0.51462,-0.51462s-0.51462,-0.25731 -1.02924,-0.25731l-7.46198,0c-0.25731,0 -0.25731,0 -0.25731,0.25731l-0.25731,0c-0.25731,0 -0.25731,0.25731 -0.25731,0.51462c0,-0.25731 0,-0.25731 0,0z" class="st0"/>
    <path stroke="null" id="svg_4" d="m62.04759,171.84207s0.25731,0.25731 0,0l0.25731,3.34503s0,0.25731 -0.25731,0.25731l-7.9766,0s-0.25731,0 -0.25731,-0.25731l0,-3.08772s0,-0.25731 0.25731,-0.25731l7.9766,0z" class="st0"/>
    <path stroke="null" id="svg_5" d="m76.19963,175.44441c-1.28655,0 -2.31579,-0.25731 -3.08772,-0.51462c-1.02924,-0.25731 -1.80117,-0.77193 -2.31579,-1.54386c-0.77193,0.77193 -1.28655,1.28655 -2.31579,1.54386c-0.77193,0.25731 -1.80117,0.51462 -2.5731,0.51462l-4.11696,0l0,-3.60234l4.88889,0c0.25731,0 0.77193,-0.25731 1.02924,-0.51462c0.25731,-0.25731 0.51462,-0.51462 0.77193,-1.02924c0.25731,-0.51462 0.25731,-1.02924 0.25731,-1.80117l0,-5.66082l3.60234,0l0,5.66082c0,1.28655 0.25731,2.05848 0.77193,2.5731s1.54386,0.77193 2.83041,0.77193l0.77193,0c0.25731,0 0.77193,-0.25731 1.02924,-0.51462c0.25731,-0.25731 0.77193,-0.51462 0.77193,-1.02924c0.25731,-0.51462 0.25731,-1.02924 0.25731,-1.80117l0,-5.66082l3.60234,0l0,5.66082c0,1.28655 0.25731,2.05848 0.77193,2.5731c0.51462,0.51462 1.54386,0.77193 2.83041,0.77193l0.77193,0c0.25731,0 0.77193,-0.25731 1.02924,-0.51462c0.25731,-0.25731 0.51462,-0.51462 0.77193,-1.02924c0.25731,-0.51462 0.25731,-1.02924 0.25731,-1.80117l0,-1.02924c0,-0.51462 0,-0.77193 -0.25731,-1.28655c0,-0.51462 -0.25731,-1.02924 -0.25731,-1.54386s-0.25731,-1.02924 -0.25731,-1.28655c0,-0.51462 -0.25731,-0.77193 -0.25731,-1.28655c0,-0.25731 -0.25731,-0.51462 -0.25731,-0.77193l3.34503,-1.02924s0,0.25731 0.25731,0.51462s0.25731,0.77193 0.25731,1.28655s0.25731,1.02924 0.25731,1.54386s0.25731,1.02924 0.25731,1.80117s0.25731,1.02924 0.25731,1.80117l0,1.54386c0,1.28655 -0.25731,2.31579 -0.51462,3.08772c-0.51462,0.77193 -0.77193,1.54386 -1.54386,2.31579c-0.51462,0.51462 -1.28655,1.02924 -2.05848,1.28655s-1.54386,0.51462 -2.31579,0.51462c-1.28655,0 -2.31579,-0.25731 -3.08772,-0.51462c-1.02924,-0.25731 -1.80117,-0.77193 -2.31579,-1.54386c-0.77193,0.77193 -1.28655,1.28655 -2.31579,1.54386s-1.02924,0 -1.80117,0zm22.64326,6.69006c1.80117,0 3.34503,-0.25731 4.63158,-0.51462s2.31579,-0.77193 3.08772,-1.28655c0.77193,-0.51462 1.02924,-1.28655 1.54386,-2.05848c0.25731,-0.77193 0.51462,-1.80117 0.51462,-3.08772l-3.60234,0c-0.77193,0 -1.80117,-0.25731 -2.5731,-0.51462c-0.77193,-0.25731 -1.80117,-0.77193 -2.31579,-1.28655c-0.77193,-0.51462 -1.28655,-1.28655 -1.80117,-2.31579c-0.51462,-1.02924 -0.77193,-2.05848 -0.77193,-3.60234c0,-0.77193 0,-1.54386 0.25731,-2.31579s0.25731,-1.28655 0.51462,-1.80117c0.25731,-0.51462 0.51462,-1.02924 0.77193,-1.28655c0.25731,-0.51462 0.51462,-0.77193 0.77193,-1.02924c0.77193,-0.77193 1.54386,-1.28655 2.31579,-1.54386c0.77193,-0.25731 1.80117,-0.51462 2.83041,-0.51462c0.77193,0 1.80117,0.25731 2.5731,0.51462s1.54386,0.77193 2.05848,1.28655c1.80117,1.54386 2.5731,4.11696 2.5731,7.46198l0,3.60234l2.83041,0l0,3.60234l-2.83041,0c0,1.80117 -0.25731,3.34503 -0.77193,4.63158c-0.51462,1.28655 -1.28655,2.31579 -2.31579,3.08772s-2.5731,1.54386 -4.11696,1.80117c-1.54386,0.51462 -3.60234,0.51462 -5.91813,0.51462l0,-3.34503l-0.25731,0zm6.17544,-19.29824c-1.28655,0 -2.31579,0.51462 -2.83041,1.28655c-0.77193,0.77193 -1.02924,2.05848 -1.02924,3.60234s0.51462,2.83041 1.54386,3.34503c0.25731,0.25731 0.51462,0.25731 0.77193,0.25731c0.25731,0 0.51462,0.25731 0.77193,0.25731l4.63158,0l0,-3.60234c0,-1.02924 0,-1.80117 -0.25731,-2.31579c-0.25731,-0.51462 -0.25731,-1.02924 -0.51462,-1.54386s-0.51462,-0.77193 -0.77193,-1.02924c-0.25731,-0.25731 -0.51462,-0.25731 -0.77193,-0.51462c-0.25731,0 -0.51462,-0.25731 -0.77193,-0.25731s-0.77193,0.51462 -0.77193,0.51462z" class="st0"/>
    <path stroke="null" id="svg_6" d="m122.51539,171.84207c0.25731,0 0.25731,0.25731 0,0l0.25731,3.34503s0,0.25731 -0.25731,0.25731l-7.9766,0s-0.25731,0 -0.25731,-0.25731l0,-3.08772s0,-0.25731 0.25731,-0.25731l7.9766,0z" class="st0"/>
    <path stroke="null" id="svg_7" d="m135.12357,160.26313s0,0.25731 0.25731,0.51462c0,0.25731 0.25731,0.77193 0.25731,1.28655s0.25731,1.02924 0.25731,1.54386s0.25731,1.28655 0.25731,1.80117s0.25731,1.28655 0.25731,1.80117l0,1.54386c0,1.28655 -0.25731,2.31579 -0.51462,3.08772s-1.02924,1.54386 -1.54386,2.05848s-1.28655,1.02924 -2.05848,1.28655s-1.54386,0.51462 -2.31579,0.51462l-7.71929,0l0,-3.60234l8.49122,0c0.25731,0 0.77193,-0.25731 1.02924,-0.51462c0.25731,-0.25731 0.77193,-0.51462 0.77193,-1.02924c0.25731,-0.51462 0.25731,-1.02924 0.25731,-1.80117l0,-1.02924c0,-0.51462 0,-0.77193 -0.25731,-1.28655c0,-0.51462 -0.25731,-1.02924 -0.25731,-1.54386s-0.25731,-1.02924 -0.25731,-1.54386s-0.25731,-0.77193 -0.25731,-1.28655c0,-0.25731 -0.25731,-0.51462 -0.25731,-0.77193l3.60234,-1.02924zm-7.9766,-4.11696l-2.83041,-3.08772l2.83041,-3.08772l3.08772,3.08772l-3.08772,3.08772zm6.94737,0l-2.83041,-3.08772l2.83041,-3.08772l3.08772,3.08772l-3.08772,3.08772zm32.93566,29.59063l-1.80117,0c-1.02924,0 -1.80117,0 -2.83041,-0.25731c-0.77193,-0.25731 -1.80117,-0.51462 -2.5731,-1.02924s-1.54386,-1.02924 -2.05848,-1.54386c-0.77193,-0.51462 -1.28655,-1.28655 -1.80117,-2.05848c-0.77193,-1.02924 -1.28655,-2.31579 -1.54386,-3.60234s-0.51462,-2.5731 -0.25731,-4.11696c0,-1.54386 0.25731,-3.08772 0.77193,-4.63158s1.02924,-3.34503 2.05848,-4.88889l3.08772,1.54386c-0.77193,1.54386 -1.28655,2.83041 -1.54386,4.11696c-0.51462,1.28655 -0.77193,2.5731 -0.77193,3.85965s0,2.31579 0.25731,3.34503s0.51462,1.80117 1.02924,2.83041c0.51462,1.02924 1.54386,1.80117 2.5731,2.31579s2.31579,0.77193 3.60234,0.77193l1.54386,0c1.80117,0 3.34503,-0.25731 4.63158,-0.51462s2.31579,-0.77193 3.08772,-1.28655c0.77193,-0.51462 1.02924,-1.28655 1.54386,-2.05848c0.25731,-0.77193 0.51462,-1.80117 0.51462,-3.08772l-3.34503,0c-0.77193,0 -1.80117,-0.25731 -2.5731,-0.51462c-0.77193,-0.25731 -1.80117,-0.77193 -2.31579,-1.28655c-0.77193,-0.51462 -1.28655,-1.28655 -1.80117,-2.31579c-0.51462,-1.02924 -0.77193,-2.05848 -0.77193,-3.60234c0,-0.77193 0,-1.54386 0.25731,-2.31579s0.25731,-1.28655 0.51462,-1.80117s0.51462,-1.02924 0.77193,-1.28655c0.25731,-0.51462 0.51462,-0.77193 0.77193,-1.02924c0.77193,-0.77193 1.54386,-1.28655 2.31579,-1.54386s1.80117,-0.51462 2.83041,-0.51462c0.77193,0 1.80117,0.25731 2.5731,0.51462s1.54386,0.77193 2.05848,1.28655c1.80117,1.54386 2.5731,4.11696 2.5731,7.46198l0,6.94737c0,1.80117 -0.25731,3.34503 -0.77193,4.63158c-0.51462,1.28655 -1.28655,2.31579 -2.31579,3.08772s-2.31579,1.54386 -4.11696,1.80117c-2.05848,0.51462 -3.85965,0.77193 -6.17544,0.77193zm1.80117,-30.36256l-2.83041,-3.08772l2.83041,-3.08772l3.08772,3.08772l-3.08772,3.08772zm4.11696,7.46198c-1.28655,0 -2.31579,0.51462 -2.83041,1.28655c-0.77193,0.77193 -1.02924,2.05848 -1.02924,3.60234s0.51462,2.83041 1.54386,3.34503c0.25731,0.25731 0.51462,0.25731 0.77193,0.25731c0.25731,0 0.51462,0.25731 0.77193,0.25731l4.63158,0l0,-3.60234c0,-1.02924 0,-1.80117 -0.25731,-2.31579c-0.25731,-0.51462 -0.25731,-1.02924 -0.51462,-1.54386s-0.51462,-0.77193 -0.77193,-1.02924c-0.25731,-0.25731 -0.51462,-0.25731 -0.77193,-0.51462c-0.25731,0 -0.51462,-0.25731 -0.77193,-0.25731c-0.51462,0.51462 -0.77193,0.51462 -0.77193,0.51462zm3.08772,-7.46198l-2.83041,-2.83041l2.83041,-3.08772l3.08772,3.08772l-3.08772,2.83041zm10.5497,26.76022c1.80117,0 3.34503,-0.25731 4.63158,-0.51462s2.31579,-0.77193 3.08772,-1.28655c0.77193,-0.51462 1.02924,-1.28655 1.54386,-2.05848c0.25731,-0.77193 0.51462,-1.80117 0.51462,-3.08772l-3.34503,0c-0.77193,0 -1.80117,-0.25731 -2.5731,-0.51462c-0.77193,-0.25731 -1.80117,-0.77193 -2.31579,-1.28655c-0.77193,-0.51462 -1.28655,-1.28655 -1.80117,-2.31579c-0.51462,-1.02924 -0.77193,-2.05848 -0.77193,-3.60234c0,-0.77193 0,-1.54386 0.25731,-2.31579s0.25731,-1.28655 0.51462,-1.80117s0.51462,-1.02924 0.77193,-1.28655s0.51462,-0.77193 0.77193,-1.02924c0.77193,-0.77193 1.54386,-1.28655 2.31579,-1.54386s1.80117,-0.51462 2.83041,-0.51462c0.77193,0 1.80117,0.25731 2.5731,0.51462s1.54386,0.77193 2.05848,1.28655c1.80117,1.54386 2.5731,4.11696 2.5731,7.46198l0,7.20467c0,1.80117 -0.25731,3.34503 -0.77193,4.63158c-0.51462,1.28655 -1.28655,2.31579 -2.31579,3.08772s-2.5731,1.54386 -4.11696,1.80117c-1.54386,0.51462 -3.60234,0.51462 -5.91813,0.51462l0,-3.34503l-0.51462,0zm6.17544,-19.29824c-1.28655,0 -2.31579,0.51462 -2.83041,1.28655c-0.77193,0.77193 -1.02924,2.05848 -1.02924,3.60234s0.51462,2.83041 1.54386,3.34503c0.25731,0.25731 0.51462,0.25731 0.77193,0.25731c0.25731,0 0.51462,0.25731 0.77193,0.25731l4.63158,0l0,-3.60234c0,-1.02924 0,-1.80117 -0.25731,-2.31579c-0.25731,-0.51462 -0.25731,-1.02924 -0.51462,-1.54386s-0.51462,-0.77193 -0.77193,-1.02924c-0.25731,-0.25731 -0.51462,-0.25731 -0.77193,-0.51462c-0.25731,0 -0.51462,-0.25731 -0.77193,-0.25731c-0.51462,0.51462 -0.77193,0.51462 -0.77193,0.51462zm32.93566,9.00584l0,3.60234l-0.77193,0c-1.80117,0 -3.60234,-0.77193 -5.1462,-2.31579c-1.02924,1.28655 -2.5731,2.05848 -4.88889,2.31579c-0.51462,0 -0.77193,0 -1.28655,0.25731l-3.34503,0c-0.77193,0 -1.28655,-0.25731 -1.80117,-0.25731s-1.28655,-0.25731 -1.80117,-0.51462l-1.54386,-0.77193l-1.54386,-0.77193l1.80117,-3.08772l1.54386,0.77193c0.51462,0.25731 1.02924,0.51462 1.54386,0.51462c0.51462,0.25731 1.28655,0.25731 2.05848,0.25731l2.05848,0c0.51462,0 1.28655,0 2.05848,-0.25731c0.77193,0 1.28655,-0.25731 1.80117,-0.51462c0.51462,-0.25731 0.77193,-0.51462 0.77193,-0.77193c0.25731,-0.25731 0.25731,-0.51462 0,-0.77193s-0.25731,-0.77193 -0.51462,-1.28655l-6.94737,-10.80701l3.08772,-2.05848l7.20467,11.06432c0.25731,0.51462 0.77193,1.02924 1.02924,1.54386s0.77193,1.02924 1.28655,1.54386l1.28655,1.28655c0.51462,0.51462 1.02924,0.51462 1.54386,0.51462l0.51462,0l0,0.51462z" class="st0"/>
    <path stroke="null" id="svg_8" d="m233.15862,171.84207c0.25731,0 0.25731,0.25731 0,0l0.25731,3.34503s0,0.25731 -0.25731,0.25731l-7.9766,0s-0.25731,0 -0.25731,-0.25731l0,-3.08772s0,-0.25731 0.25731,-0.25731l7.9766,0z" class="st0"/>
    <path stroke="null" id="svg_9" d="m248.3399,171.84207l0,3.60234l-1.54386,0c-1.02924,0 -2.05848,-0.25731 -3.08772,-0.51462s-1.54386,-0.77193 -2.05848,-1.54386c-1.28655,1.28655 -3.34503,2.05848 -5.66082,2.05848l-3.60234,0l0,-3.60234l3.60234,0c0.77193,0 1.54386,0 2.05848,-0.25731c0.51462,-0.25731 1.02924,-0.51462 1.28655,-0.77193s0.51462,-0.51462 0.51462,-0.77193l0,-7.20467l3.60234,0l0,6.17544c0,0.51462 0,0.77193 0.25731,1.28655c0.25731,0.25731 0.25731,0.51462 0.51462,0.77193c0.25731,0.25731 0.51462,0.51462 0.77193,0.51462c0.25731,0 0.51462,0.25731 0.77193,0.25731l2.5731,0zm-10.80701,-17.75438l3.08772,-3.34503l3.34503,3.34503l-3.34503,3.34503l-3.08772,-3.34503z" class="st0"/>
    <path stroke="null" id="svg_10" d="m256.05919,171.84207s0.25731,0.25731 0,0l0.25731,3.34503s0,0.25731 -0.25731,0.25731l-7.9766,0s-0.25731,0 -0.25731,-0.25731l0,-3.08772s0,-0.25731 0.25731,-0.25731l7.9766,0z" class="st0"/>
    <path stroke="null" id="svg_11" d="m263.77848,171.84207s0.25731,0.25731 0,0l0.25731,3.34503s0,0.25731 -0.25731,0.25731l-7.9766,0s-0.25731,0 -0.25731,-0.25731l0,-3.08772s0,-0.25731 0.25731,-0.25731l7.9766,0z" class="st0"/>
    <path stroke="null" id="svg_12" d="m271.49778,171.84207c0.25731,0 0.25731,0.25731 0,0l0.25731,3.34503s0,0.25731 -0.25731,0.25731l-7.9766,0s-0.25731,0 -0.25731,-0.25731l0,-3.08772s0,-0.25731 0.25731,-0.25731l7.9766,0z" class="st0"/>
    <path stroke="null" id="svg_13" d="m279.21707,171.84207c0.25731,0 0.25731,0.25731 0,0l0.25731,3.34503s0,0.25731 -0.25731,0.25731l-7.9766,0s-0.25731,0 -0.25731,-0.25731l0,-3.08772s0,-0.25731 0.25731,-0.25731l7.9766,0z" class="st0"/>
    <path stroke="null" id="svg_14" d="m278.95976,175.44441l0,-3.60234l3.08772,0c0.77193,0 1.54386,0 2.05848,-0.25731s1.02924,-0.51462 1.28655,-0.77193s0.51462,-0.51462 0.51462,-0.77193c0,-0.25731 0.25731,-0.51462 0.25731,-1.02924l0,-6.17544l3.60234,0l0,6.17544c0,0.77193 0.25731,1.28655 0.51462,1.54386c0.25731,0.51462 0.51462,0.77193 1.02924,0.77193c0.25731,-0.25731 0.25731,-0.51462 0.51462,-0.77193s0.25731,-0.51462 0.51462,-0.77193l1.54386,-2.31579c0.51462,-0.77193 1.02924,-1.54386 1.80117,-2.31579c0.51462,-0.77193 1.28655,-1.54386 1.80117,-2.31579c0.77193,-0.77193 1.28655,-1.28655 2.05848,-1.80117s1.54386,-1.02924 2.31579,-1.28655c0.77193,-0.25731 1.54386,-0.51462 2.5731,-0.51462s1.80117,0.25731 2.5731,0.51462s1.54386,0.77193 2.31579,1.54386c0.77193,0.77193 1.28655,1.54386 1.54386,2.5731s0.51462,2.31579 0.51462,3.85965c0,1.28655 -0.25731,2.5731 -0.77193,3.60234s-1.02924,1.80117 -1.80117,2.31579s-1.54386,1.02924 -2.31579,1.28655c-0.77193,0.25731 -1.80117,0.51462 -2.5731,0.51462l-11.06432,0c-0.77193,0 -1.80117,-0.25731 -2.5731,-0.51462c-0.77193,-0.25731 -1.54386,-0.77193 -2.05848,-1.02924c-0.25731,0 -0.25731,-0.25731 -0.51462,-0.25731l-2.31579,1.54386c-1.02924,0.25731 -2.05848,0.51462 -3.34503,0.51462l-3.08772,0l0,-0.25731zm24.70174,-3.60234c0.51462,0 1.28655,0 1.54386,-0.25731s1.02924,-0.51462 1.28655,-0.77193s0.51462,-0.77193 0.77193,-1.28655s0.25731,-1.02924 0.25731,-1.80117c0,-1.54386 -0.25731,-2.83041 -1.02924,-3.60234s-1.54386,-1.28655 -2.83041,-1.28655c-0.77193,0 -1.80117,0.25731 -2.5731,0.77193c-0.77193,0.51462 -1.54386,1.28655 -2.31579,2.05848s-1.54386,1.80117 -2.05848,2.83041c-0.77193,1.02924 -1.28655,2.05848 -2.05848,3.08772l9.00584,0.25731zm-291.78933,67.67248c-2.05848,0 -3.60234,-0.51462 -5.1462,-1.28655s-2.83041,-2.05848 -3.85965,-3.60234c-0.77193,-1.02924 -1.02924,-2.31579 -1.54386,-3.60234c-0.25731,-1.28655 -0.51462,-2.5731 -0.25731,-4.11696c0,-1.54386 0.25731,-3.08772 0.77193,-4.63158c0.51462,-1.54386 1.02924,-3.34503 1.80117,-4.88889l3.08772,1.54386c-0.77193,1.54386 -1.28655,2.83041 -1.54386,4.11696c-0.51462,1.28655 -0.77193,2.5731 -0.77193,3.85965s0,2.31579 0.25731,3.34503s0.51462,1.80117 1.02924,2.83041c0.77193,1.02924 1.54386,1.80117 2.5731,2.31579s2.31579,0.77193 3.60234,0.77193l4.37427,0c1.54386,0 2.5731,-0.25731 3.60234,-0.51462c1.02924,-0.25731 1.54386,-0.77193 2.05848,-1.28655c0.51462,-0.51462 0.77193,-1.28655 1.02924,-2.05848c0.25731,-0.77193 0.25731,-1.54386 0.25731,-2.5731l0,-13.38011l3.60234,0l0,5.91813c0,0.51462 0,1.02924 0.25731,1.28655c0.25731,0.51462 0.51462,0.77193 0.77193,1.02924c0.25731,0.25731 0.51462,0.51462 1.02924,0.77193s0.77193,0.25731 1.28655,0.25731l0.77193,0l0,3.60234l-0.77193,0c-1.28655,0 -2.31579,-0.25731 -3.34503,-0.77193l0,1.28655c0,3.34503 -0.77193,5.66082 -2.5731,7.46198c-1.80117,1.54386 -4.37427,2.5731 -7.71929,2.5731l-4.63158,0l0,-0.25731zm0.25731,-24.44443l3.08772,-3.34503l3.34503,3.34503l-3.34503,3.34503l-3.08772,-3.34503z" class="st0"/>
    <path stroke="null" id="svg_15" d="m38.37508,225.61983c0.25731,0 0.25731,0 0,0l0.25731,3.34503s0,0.25731 -0.25731,0.25731l-7.9766,0s-0.25731,0 -0.25731,-0.25731l0,-3.08772s0,-0.25731 0.25731,-0.25731l7.9766,0z" class="st0"/>
    <path stroke="null" id="svg_16" d="m50.98326,213.78357s0,0.25731 0.25731,0.51462c0,0.25731 0.25731,0.77193 0.25731,1.28655s0.25731,1.02924 0.25731,1.54386s0.25731,1.28655 0.25731,1.80117s0.25731,1.28655 0.25731,1.80117l0,1.54386c0,1.28655 -0.25731,2.31579 -0.51462,3.08772s-1.02924,1.54386 -1.54386,2.05848c-0.51462,0.51462 -1.28655,1.02924 -2.05848,1.28655s-1.54386,0.51462 -2.31579,0.51462l-7.71929,0l0,-3.60234l8.49122,0c0.25731,0 0.77193,-0.25731 1.02924,-0.51462c0.25731,-0.25731 0.77193,-0.51462 0.77193,-1.02924c0.25731,-0.51462 0.25731,-1.02924 0.25731,-1.80117l0,-1.02924c0,-0.51462 0,-0.77193 -0.25731,-1.28655c0,-0.51462 -0.25731,-1.02924 -0.25731,-1.54386c0,-0.51462 -0.25731,-1.02924 -0.25731,-1.54386c0,-0.51462 -0.25731,-0.77193 -0.25731,-1.28655c0,-0.25731 -0.25731,-0.51462 -0.25731,-0.77193l3.60234,-1.02924zm-5.91813,22.64326l-3.08772,3.08772l-2.83041,-3.08772l2.83041,-3.08772l3.08772,3.08772zm7.20467,-0.25731l-3.08772,3.08772l-2.83041,-3.08772l2.83041,-3.08772l3.08772,3.08772zm6.94737,-0.25731c1.80117,0 3.34503,-0.25731 4.63158,-0.51462s2.31579,-0.77193 3.08772,-1.28655s1.02924,-1.28655 1.54386,-2.05848c0.25731,-0.77193 0.51462,-1.80117 0.51462,-3.08772l-3.34503,0c-0.77193,0 -1.80117,-0.25731 -2.5731,-0.51462c-0.77193,-0.25731 -1.80117,-0.77193 -2.31579,-1.28655c-0.77193,-0.51462 -1.28655,-1.28655 -1.80117,-2.31579s-0.77193,-2.05848 -0.77193,-3.60234c0,-0.77193 0,-1.54386 0.25731,-2.31579s0.25731,-1.28655 0.51462,-1.80117c0.25731,-0.51462 0.51462,-1.02924 0.77193,-1.28655c0.25731,-0.51462 0.51462,-0.77193 0.77193,-1.02924c0.77193,-0.77193 1.54386,-1.28655 2.31579,-1.54386s1.80117,-0.51462 2.83041,-0.51462c0.77193,0 1.80117,0.25731 2.5731,0.51462c0.77193,0.25731 1.54386,0.77193 2.05848,1.28655c1.80117,1.54386 2.5731,4.11696 2.5731,7.46198l0,3.60234l2.83041,0l0,3.60234l-2.83041,0c0,1.80117 -0.25731,3.34503 -0.77193,4.63158s-1.28655,2.31579 -2.31579,3.08772s-2.5731,1.54386 -4.11696,1.80117c-1.54386,0.51462 -3.60234,0.51462 -5.91813,0.51462l0,-3.34503l-0.51462,0zm6.17544,-19.29824c-1.28655,0 -2.31579,0.51462 -2.83041,1.28655c-0.77193,0.77193 -1.02924,2.05848 -1.02924,3.60234c0,1.54386 0.51462,2.83041 1.54386,3.34503c0.25731,0.25731 0.51462,0.25731 0.77193,0.25731s0.51462,0.25731 0.77193,0.25731l4.37427,0l0,-3.34503c0,-1.02924 0,-1.80117 -0.25731,-2.31579s-0.25731,-1.02924 -0.51462,-1.54386c-0.25731,-0.51462 -0.51462,-0.77193 -0.77193,-1.02924c-0.25731,-0.25731 -0.51462,-0.25731 -0.77193,-0.51462c-0.25731,0 -0.51462,-0.25731 -0.77193,-0.25731s-0.51462,0.25731 -0.51462,0.25731z" class="st0"/>
    <path stroke="null" id="svg_17" d="m84.94816,213.78357s0,0.25731 0.25731,0.51462c0,0.25731 0.25731,0.77193 0.25731,1.28655s0.25731,1.02924 0.25731,1.54386s0.25731,1.28655 0.25731,1.80117s0.25731,1.28655 0.25731,1.80117l0,1.54386c0,1.28655 -0.25731,2.31579 -0.51462,3.08772s-1.02924,1.54386 -1.54386,2.05848c-0.51462,0.51462 -1.28655,1.02924 -2.05848,1.28655s-1.54386,0.51462 -2.31579,0.51462l-4.88889,0l0,-3.60234l5.66082,0c0.25731,0 0.77193,-0.25731 1.02924,-0.51462c0.25731,-0.25731 0.77193,-0.51462 0.77193,-1.02924c0.25731,-0.51462 0.25731,-1.02924 0.25731,-1.80117l0,-1.02924c0,-0.51462 0,-0.77193 -0.25731,-1.28655c0,-0.51462 -0.25731,-1.02924 -0.25731,-1.54386c0,-0.51462 -0.25731,-1.02924 -0.25731,-1.54386c0,-0.51462 -0.25731,-0.77193 -0.25731,-1.28655c0,-0.25731 -0.25731,-0.51462 -0.25731,-0.77193l3.60234,-1.02924zm-6.17544,-7.71929l3.08772,-3.34503l3.34503,3.34503l-3.34503,3.34503l-3.08772,-3.34503zm42.97074,29.59063c1.02924,-0.25731 1.80117,-0.51462 2.31579,-1.02924c0.51462,-0.51462 1.02924,-1.02924 1.28655,-1.80117s0.51462,-1.80117 0.51462,-2.83041c-1.28655,-0.25731 -2.31579,-0.51462 -3.60234,-1.02924c-0.51462,0 -1.02924,-0.25731 -1.54386,-0.51462c-0.51462,-0.25731 -1.02924,-0.25731 -1.54386,-0.51462s-1.02924,-0.25731 -1.54386,-0.51462c-0.51462,0 -1.02924,-0.25731 -1.28655,-0.25731c-0.77193,-1.28655 -1.02924,-2.5731 -1.02924,-3.85965s0.25731,-2.5731 0.77193,-3.85965c0.51462,-1.28655 1.28655,-2.31579 2.05848,-3.08772c1.02924,-1.02924 2.05848,-1.80117 3.34503,-2.31579s2.5731,-1.02924 4.11696,-1.02924s2.83041,0 4.37427,0.51462l-0.77193,3.34503c-0.77193,-0.25731 -1.80117,-0.51462 -2.5731,-0.25731c-0.77193,0 -1.80117,0.25731 -2.5731,0.25731c-0.77193,0.25731 -1.54386,0.51462 -2.31579,1.02924s-1.28655,1.02924 -1.80117,1.54386c-0.51462,0.51462 -0.77193,1.28655 -1.02924,2.05848s-0.25731,1.54386 -0.25731,2.5731l7.20467,1.80117c1.02924,0.25731 1.80117,0.77193 2.31579,1.28655c0.51462,0.51462 0.77193,1.28655 0.77193,2.31579c0,1.54386 -0.25731,3.08772 -0.51462,4.37427c-0.51462,1.28655 -1.02924,2.31579 -1.80117,3.08772c-0.77193,0.77193 -2.05848,1.54386 -3.34503,1.80117c-1.28655,0.51462 -3.08772,0.51462 -4.88889,0.51462l-4.11696,0c-1.02924,0 -1.80117,0 -2.83041,-0.25731c-0.77193,-0.25731 -1.80117,-0.51462 -2.5731,-1.02924s-1.54386,-1.02924 -2.05848,-1.54386c-0.77193,-0.51462 -1.28655,-1.28655 -1.80117,-2.05848c-0.51462,-1.02924 -1.02924,-2.05848 -1.28655,-3.08772s-0.51462,-2.31579 -0.51462,-3.60234c0,-1.54386 0.25731,-3.34503 0.77193,-5.1462s1.28655,-3.60234 2.05848,-5.66082l1.54386,0.77193l1.54386,0.77193c-1.54386,3.60234 -2.5731,6.69006 -2.5731,9.26315c0,1.02924 0,1.80117 0.25731,2.5731s0.51462,1.54386 1.02924,2.31579c0.51462,1.02924 1.54386,1.80117 2.5731,2.31579s2.31579,0.77193 3.60234,0.77193l4.11696,0c1.54386,0.25731 2.5731,0 3.60234,0zm23.15788,-6.43275c-1.28655,0 -2.31579,0 -3.08772,-0.25731s-1.54386,-0.51462 -2.05848,-0.77193s-1.02924,-0.77193 -1.54386,-1.28655c-0.25731,-0.51462 -0.51462,-1.02924 -0.77193,-1.80117c-0.25731,-0.51462 -0.25731,-1.28655 -0.51462,-2.05848l0,-20.58479l3.60234,0l0,20.58479c0,0.77193 0.25731,1.28655 0.51462,1.54386s0.77193,0.51462 1.28655,0.77193s1.28655,0.25731 2.5731,0.25731l0,3.60234z" class="st0"/>
    <path stroke="null" id="svg_18" d="m152.36333,225.61983c0.25731,0 0.25731,0 0,0l0.25731,3.34503s0,0.25731 -0.25731,0.25731l-7.9766,0s-0.25731,0 -0.25731,-0.25731l0,-3.08772s0,-0.25731 0.25731,-0.25731l7.9766,0z" class="st0"/>
    <path stroke="null" id="svg_19" d="m168.83116,209.40931c1.28655,1.54386 2.5731,2.83041 3.85965,4.11696l1.54386,1.54386c0.51462,0.51462 1.02924,1.02924 1.28655,1.54386s0.77193,1.02924 1.02924,1.28655c0.25731,0.51462 0.51462,0.77193 0.77193,1.02924l0.77193,1.54386c0.25731,0.51462 0.25731,1.02924 0.51462,1.54386l0,1.54386c0,0.51462 -0.25731,1.02924 -0.25731,1.80117c-0.25731,0.77193 -0.51462,1.28655 -1.02924,2.05848l-1.54386,1.54386c-0.51462,0.51462 -1.28655,0.77193 -2.05848,1.02924c-0.77193,0.25731 -1.54386,0.25731 -2.5731,0.25731c-0.77193,0 -1.80117,0 -2.5731,-0.25731s-1.80117,-0.51462 -2.83041,-1.02924c-0.25731,0 -0.51462,-0.25731 -0.77193,-0.25731c-0.25731,0 -0.51462,-0.25731 -0.77193,-0.25731c-0.25731,0 -0.51462,-0.25731 -0.51462,-0.25731c-1.28655,0.25731 -2.5731,0.51462 -4.11696,0.77193s-3.34503,0.25731 -5.1462,0.25731l-2.83041,0l0,-3.60234l5.40351,0c1.02924,0 1.54386,0 2.31579,-0.25731c-0.77193,-0.77193 -1.54386,-1.54386 -2.05848,-2.5731c-0.51462,-1.02924 -0.51462,-2.05848 -0.51462,-3.34503c0,-1.02924 0.25731,-1.80117 0.51462,-2.5731s0.77193,-1.54386 1.54386,-2.05848c0.51462,-0.51462 1.28655,-1.02924 2.31579,-1.28655s1.80117,-0.51462 2.83041,-0.51462c0.77193,0 1.54386,0 2.05848,0.25731c0.51462,0.25731 1.28655,0.51462 1.80117,0.77193s1.02924,0.77193 1.28655,1.28655s0.77193,1.02924 1.02924,1.54386s0.51462,1.02924 0.51462,1.54386s0.25731,1.02924 0.25731,1.54386c0,1.28655 -0.25731,2.31579 -0.77193,3.34503c-0.51462,1.02924 -1.28655,2.05848 -2.05848,2.83041c0.51462,0.25731 1.02924,0.25731 1.80117,0.51462c0.51462,0.25731 1.28655,0.25731 1.80117,0.25731l1.02924,0c0.25731,0 0.77193,-0.25731 1.02924,-0.25731c0.25731,-0.25731 0.51462,-0.25731 1.02924,-0.51462c0.25731,-0.25731 0.51462,-0.51462 0.77193,-1.02924c0.25731,-0.51462 0.25731,-1.02924 0.25731,-1.80117c0,-0.51462 -0.51462,-1.28655 -0.77193,-2.05848s-1.02924,-1.54386 -1.54386,-2.05848s-1.28655,-1.54386 -2.05848,-2.31579l-2.31579,-2.31579l-2.31579,-2.31579l2.05848,-2.83041zm-4.63158,14.92397c0.51462,-0.25731 0.77193,-0.51462 1.28655,-0.77193s0.77193,-0.51462 1.02924,-1.02924c0.25731,-0.25731 0.51462,-0.77193 0.77193,-1.28655c0.25731,-0.51462 0.25731,-1.02924 0.25731,-1.54386c0,-0.51462 -0.25731,-1.02924 -0.51462,-1.54386c-0.25731,-0.51462 -0.51462,-0.77193 -1.02924,-1.02924c-0.25731,-0.25731 -0.77193,-0.51462 -1.02924,-0.51462c-0.51462,0 -0.77193,-0.25731 -1.02924,-0.25731c-0.51462,0 -1.02924,0 -1.28655,0.25731s-0.77193,0.25731 -1.02924,0.77193c-0.25731,0.25731 -0.51462,0.51462 -0.77193,1.02924c-0.25731,0.51462 -0.25731,0.77193 -0.25731,1.28655s0,1.02924 0.25731,1.54386c0.25731,0.51462 0.25731,0.77193 0.77193,1.28655c0.25731,0.25731 0.77193,0.77193 1.28655,1.02924c0,0 0.51462,0.51462 1.28655,0.77193zm49.9181,11.32163c1.02924,-0.25731 1.80117,-0.51462 2.31579,-1.02924c0.51462,-0.51462 1.02924,-1.02924 1.28655,-1.80117s0.51462,-1.80117 0.51462,-2.83041c-1.28655,-0.25731 -2.31579,-0.51462 -3.60234,-1.02924c-0.51462,0 -1.02924,-0.25731 -1.54386,-0.51462c-0.51462,-0.25731 -1.02924,-0.25731 -1.54386,-0.51462s-1.02924,-0.25731 -1.54386,-0.51462s-1.02924,-0.25731 -1.28655,-0.25731c-0.51462,-1.54386 -0.77193,-2.83041 -0.77193,-4.11696s0.25731,-2.5731 0.77193,-3.85965c0.51462,-1.28655 1.28655,-2.31579 2.05848,-3.08772c1.02924,-1.02924 2.05848,-1.80117 3.34503,-2.31579s2.5731,-1.02924 4.11696,-1.02924s2.83041,0 4.37427,0.51462l-0.77193,3.34503c-0.77193,-0.25731 -1.80117,-0.51462 -2.5731,-0.25731c-0.77193,0 -1.80117,0.25731 -2.5731,0.25731c-0.77193,0.25731 -1.54386,0.51462 -2.31579,1.02924s-1.28655,1.02924 -1.80117,1.54386c-0.51462,0.51462 -0.77193,1.28655 -1.02924,2.05848s-0.25731,1.54386 -0.25731,2.5731l7.20467,1.80117c1.02924,0.25731 1.80117,0.77193 2.31579,1.28655c0.51462,0.51462 0.77193,1.28655 0.77193,2.31579c0,1.54386 -0.25731,3.08772 -0.51462,4.37427c-0.51462,1.28655 -1.02924,2.31579 -1.80117,3.08772c-0.77193,0.77193 -2.05848,1.54386 -3.34503,1.80117c-1.28655,0.51462 -3.08772,0.51462 -4.88889,0.51462l-4.11696,0c-1.02924,0 -1.80117,0 -2.83041,-0.25731c-0.77193,-0.25731 -1.80117,-0.51462 -2.5731,-1.02924s-1.54386,-1.02924 -2.05848,-1.54386c-0.77193,-0.51462 -1.28655,-1.28655 -1.80117,-2.05848c-0.51462,-1.02924 -1.02924,-2.05848 -1.28655,-3.08772s-0.51462,-2.31579 -0.51462,-3.60234c0,-1.54386 0.25731,-3.34503 0.77193,-5.1462s1.28655,-3.60234 2.05848,-5.66082l1.54386,0.77193l1.54386,0.77193c-1.54386,3.60234 -2.5731,6.69006 -2.5731,9.26315c0,1.02924 0,1.80117 0.25731,2.5731s0.51462,1.54386 1.02924,2.31579c0.51462,1.02924 1.54386,1.80117 2.5731,2.31579s2.31579,0.77193 3.60234,0.77193l4.11696,0c1.28655,0.51462 2.31579,0.25731 3.34503,0.25731zm9.26315,3.85965l0,-3.60234l2.5731,0c1.28655,0 2.31579,-0.25731 3.34503,-0.51462s1.80117,-0.77193 2.31579,-1.28655c0.51462,-0.51462 1.02924,-1.54386 1.28655,-2.31579c0.25731,-1.02924 0.51462,-2.05848 0.51462,-3.60234l0,-11.57894l3.60234,0l0,11.57894c0,1.80117 -0.25731,3.34503 -0.77193,4.88889c-0.51462,1.28655 -1.28655,2.5731 -2.05848,3.60234c-1.02924,1.02924 -2.05848,1.80117 -3.34503,2.31579s-3.08772,0.77193 -4.88889,0.77193l-2.5731,-0.25731zm19.81286,-3.60234c1.80117,0 3.34503,-0.25731 4.63158,-0.51462s2.31579,-0.77193 3.08772,-1.28655c0.77193,-0.51462 1.02924,-1.28655 1.54386,-2.05848c0.25731,-0.77193 0.51462,-1.80117 0.51462,-3.08772l-3.34503,0c-0.77193,0 -1.80117,-0.25731 -2.5731,-0.51462c-0.77193,-0.25731 -1.80117,-0.77193 -2.31579,-1.28655c-0.77193,-0.51462 -1.28655,-1.28655 -1.80117,-2.31579s-0.77193,-2.05848 -0.77193,-3.60234c0,-0.77193 0,-1.54386 0.25731,-2.31579s0.25731,-1.28655 0.51462,-1.80117s0.51462,-1.02924 0.77193,-1.28655s0.51462,-0.77193 0.77193,-1.02924c0.77193,-0.77193 1.54386,-1.28655 2.31579,-1.54386s1.80117,-0.51462 2.83041,-0.51462c0.77193,0 1.80117,0.25731 2.5731,0.51462c0.77193,0.25731 1.54386,0.77193 2.05848,1.28655c1.80117,1.54386 2.5731,4.11696 2.5731,7.46198l0,7.20467c0,1.80117 -0.25731,3.34503 -0.77193,4.63158c-0.51462,1.28655 -1.28655,2.31579 -2.31579,3.08772s-2.5731,1.54386 -4.11696,1.80117c-1.54386,0.51462 -3.60234,0.51462 -5.91813,0.51462l0,-3.34503l-0.51462,0zm6.17544,-19.29824c-1.28655,0 -2.31579,0.51462 -2.83041,1.28655c-0.77193,0.77193 -1.02924,2.05848 -1.02924,3.60234c0,1.54386 0.51462,2.83041 1.54386,3.34503c0.25731,0.25731 0.51462,0.25731 0.77193,0.25731c0.25731,0 0.51462,0.25731 0.77193,0.25731l4.63158,0l0,-3.34503c0,-1.02924 0,-1.80117 -0.25731,-2.31579s-0.25731,-1.02924 -0.51462,-1.54386c-0.25731,-0.51462 -0.51462,-0.77193 -0.77193,-1.02924c-0.25731,-0.25731 -0.51462,-0.25731 -0.77193,-0.51462c-0.25731,0 -0.51462,-0.25731 -0.77193,-0.25731c-0.51462,0.25731 -0.51462,0.25731 -0.77193,0.25731zm21.61402,12.60818c-1.28655,0 -2.31579,0 -3.08772,-0.25731s-1.54386,-0.51462 -2.05848,-0.77193s-1.02924,-0.77193 -1.54386,-1.28655c-0.25731,-0.51462 -0.51462,-1.02924 -0.77193,-1.80117c-0.25731,-0.51462 -0.25731,-1.28655 -0.51462,-2.05848l0,-20.58479l3.60234,0l0,20.58479c0,0.77193 0.25731,1.28655 0.51462,1.54386c0.25731,0.25731 0.77193,0.51462 1.28655,0.77193s1.28655,0.25731 2.5731,0.25731l0,3.60234z" class="st0"/>
    <path stroke="null" id="svg_20" d="m278.70245,225.61983s0.25731,0 0,0l0.25731,3.34503s0,0.25731 -0.25731,0.25731l-7.9766,0s-0.25731,0 -0.25731,-0.25731l0,-3.08772s0,-0.25731 0.25731,-0.25731l7.9766,0z" class="st0"/>
    <path stroke="null" id="svg_21" d="m293.88373,225.61983l0,3.60234l-1.54386,0c-1.02924,0 -2.05848,-0.25731 -3.08772,-0.51462s-1.54386,-0.77193 -2.05848,-1.54386c-1.28655,1.28655 -3.34503,2.05848 -5.66082,2.05848l-3.60234,0l0,-3.60234l3.60234,0c0.77193,0 1.54386,0 2.05848,-0.25731s1.02924,-0.51462 1.28655,-0.77193s0.51462,-0.51462 0.51462,-0.77193l0,-7.46198l3.60234,0l0,6.17544c0,0.51462 0,0.77193 0.25731,1.28655c0.25731,0.25731 0.25731,0.51462 0.51462,0.77193c0.25731,0.25731 0.51462,0.51462 0.77193,0.51462s0.51462,0.25731 0.77193,0.25731l1.28655,0l1.28655,0.25731zm-10.80701,-17.75438l3.08772,-3.34503l3.34503,3.34503l-3.34503,3.34503l-3.08772,-3.34503z" class="st0"/>
   </g>
  </g>
 </g>
</svg>